<?xml version="1.0" encoding="UTF-8"?>
<svg version="1.1" xmlns="http://www.w3.org/2000/svg" width="557" height="198">
<path d="M0 0 C183.81 0 367.62 0 557 0 C557 65.34 557 130.68 557 198 C373.19 198 189.38 198 0 198 C0 132.66 0 67.32 0 0 Z " fill="#FEFEFE" transform="translate(0,0)"/>
<path d="M0 0 C10 0 10 0 12.9375 0.5625 C15.9077669 1.28328737 15.9077669 1.28328737 18 0 C19.54613014 0.08651631 21.08909387 0.24002636 22.625 0.4375 C23.44226563 0.53933594 24.25953125 0.64117188 25.1015625 0.74609375 C25.72804688 0.82988281 26.35453125 0.91367187 27 1 C27 1.66 27 2.32 27 3 C28.85625 3.2475 28.85625 3.2475 30.75 3.5 C31.79414063 3.63921875 31.79414063 3.63921875 32.859375 3.78125 C35.30458395 4.06777357 35.30458395 4.06777357 39 4 C39 4.66 39 5.32 39 6 C41.31 6.33 43.62 6.66 46 7 C46 8.32 46 9.64 46 11 C44.68 11 43.36 11 42 11 C42.495 11.99 42.495 11.99 43 13 C46.27773504 12.24849977 46.27773504 12.24849977 48 9 C48.99 9.33 49.98 9.66 51 10 C51.495 12.97 51.495 12.97 52 16 C52.66 15.01 53.32 14.02 54 13 C56.86724686 13.57344937 57.8614515 13.8614515 60 16 C58.35 16.99 56.7 17.98 55 19 C57.31 18.34 59.62 17.68 62 17 C65 20.75 65 20.75 65 23 C65.66 22.34 66.32 21.68 67 21 C67.33 21.99 67.66 22.98 68 24 C70.01508358 24.73323796 70.01508358 24.73323796 72 25 C72.33 27.64 72.66 30.28 73 33 C73.66 33 74.32 33 75 33 C75.33 32.01 75.66 31.02 76 30 C76.33 30.99 76.66 31.98 77 33 C76.67 33.33 76.34 33.66 76 34 C76.99 34.33 77.98 34.66 79 35 C79.66666667 37 80.33333333 39 81 41 C81.99 41.33 82.98 41.66 84 42 C84.33 43.98 84.66 45.96 85 48 C85.66 48 86.32 48 87 48 C88.4606285 50.64738916 89 51.89448334 89 55 C88.67 55.33 88.34 55.66 88 56 C88.7734375 56.86625 88.7734375 56.86625 89.5625 57.75 C91 60 91 60 90.6875 62.25 C90.3471875 63.11625 90.3471875 63.11625 90 64 C90.99 64 91.98 64 93 64 C92.979375 64.9075 92.95875 65.815 92.9375 66.75 C92.86841007 69.84256815 92.86841007 69.84256815 93.5625 72.125 C94 74 94 74 93.5 75.8125 C92.77149938 78.9996902 93.47646832 81.80063972 94 85 C94 88 94 91 94 94 C93.34 93.67 92.68 93.34 92 93 C91.67 93.66 91.34 94.32 91 95 C91.99 95 92.98 95 94 95 C93.67 96.65 93.34 98.3 93 100 C92.34 100 91.68 100 91 100 C91.33 101.98 91.66 103.96 92 106 C91.34 106 90.68 106 90 106 C90 107.65 90 109.3 90 111 C89.01 111.495 89.01 111.495 88 112 C87.67 112.99 87.34 113.98 87 115 C86.67 115.33 86.34 115.66 86 116 C86.33 116.66 86.66 117.32 87 118 C86.34 118.99 85.68 119.98 85 121 C85 121.66 85 122.32 85 123 C84.01 123.495 84.01 123.495 83 124 C81.86649466 126.01669827 81.86649466 126.01669827 81 128 C80.34 127.67 79.68 127.34 79 127 C79.4021875 127.8353125 79.4021875 127.8353125 79.8125 128.6875 C80 131 80 131 77.875 133.625 C75.22976239 135.81019628 73.24000193 136.98171368 70 138 C70.99 138 71.98 138 73 138 C73 138.66 73 139.32 73 140 C72.21625 140.0825 71.4325 140.165 70.625 140.25 C67.85250896 140.72806339 67.85250896 140.72806339 66.6875 143.0625 C66.3471875 144.0215625 66.3471875 144.0215625 66 145 C66 144.34 66 143.68 66 143 C65.34 143.33 64.68 143.66 64 144 C64 144.99 64 145.98 64 147 C63.67 147.66 63.34 148.32 63 149 C61.68 148.67 60.36 148.34 59 148 C58.34 149.65 57.68 151.3 57 153 C54.69 153 52.38 153 50 153 C51.485 153.99 51.485 153.99 53 155 C50.09399739 156.25664978 48.20395416 157 45 157 C44.67 157.99 44.34 158.98 44 160 C41.69 160 39.38 160 37 160 C37.33 160.66 37.66 161.32 38 162 C36.27318563 162.50806447 34.54342021 163.00610467 32.8125 163.5 C31.36810547 163.91765625 31.36810547 163.91765625 29.89453125 164.34375 C27.13418209 164.96957815 24.81397986 165.07166332 22 165 C21.13375 165.185625 20.2675 165.37125 19.375 165.5625 C17 166 17 166 14 165 C13.67 165.33 13.34 165.66 13 166 C10.98035801 166.07244053 8.95832876 166.08377188 6.9375 166.0625 C5.83277344 166.05347656 4.72804688 166.04445312 3.58984375 166.03515625 C2.30787109 166.01775391 2.30787109 166.01775391 1 166 C0.67 165.34 0.34 164.68 0 164 C-1.32 164.33 -2.64 164.66 -4 165 C-4 164.01 -4 163.02 -4 162 C-4.53625 162.37125 -5.0725 162.7425 -5.625 163.125 C-8.94612897 164.34857383 -10.81090417 163.30463011 -14 162 C-14 161.34 -14 160.68 -14 160 C-14.515625 160.226875 -15.03125 160.45375 -15.5625 160.6875 C-19.25664496 161.16110833 -21.70136144 159.59041502 -25 158 C-25.70125 157.67 -26.4025 157.34 -27.125 157 C-29.48384476 155.74194946 -31.7739256 154.4840496 -34 153 C-34 152.34 -34 151.68 -34 151 C-34.928125 150.71125 -35.85625 150.4225 -36.8125 150.125 C-40 149 -40 149 -43 147 C-43 146.34 -43 145.68 -43 145 C-43.66 145 -44.32 145 -45 145 C-44 143 -43 141 -42 139 C-42.66 139 -43.32 139 -44 139 C-44.33 139.99 -44.66 140.98 -45 142 C-47.95290136 140.62901008 -50.60419752 139.22467373 -53 137 C-53 135.68 -53 134.36 -53 133 C-53.66 133 -54.32 133 -55 133 C-55.33 132.01 -55.66 131.02 -56 130 C-56.825 129.443125 -57.65 128.88625 -58.5 128.3125 C-62.04723181 125.03131058 -61.76331836 122.73363279 -62 118 C-62.99 118 -63.98 118 -65 118 C-65.65134925 116.43979133 -66.29582964 114.87671421 -66.9375 113.3125 C-67.29714844 112.44238281 -67.65679687 111.57226562 -68.02734375 110.67578125 C-69.8365741 105.69858129 -70.10361405 101.2843166 -70 96 C-69.34 96 -68.68 96 -68 96 C-68 95.34 -68 94.68 -68 94 C-69.485 94.495 -69.485 94.495 -71 95 C-70.67 93.35 -70.34 91.7 -70 90 C-70.66 90 -71.32 90 -72 90 C-71.34 88.35 -70.68 86.7 -70 85 C-70.66 85 -71.32 85 -72 85 C-71.505 84.01 -71.505 84.01 -71 83 C-70.01 83 -69.02 83 -68 83 C-69.32 82.67 -70.64 82.34 -72 82 C-72 81.34 -72 80.68 -72 80 C-70.515 79.505 -70.515 79.505 -69 79 C-69.99 78.67 -70.98 78.34 -72 78 C-71.67 74.04 -71.34 70.08 -71 66 C-69.515 65.505 -69.515 65.505 -68 65 C-68.33 63.68 -68.66 62.36 -69 61 C-66 59 -66 59 -63 59 C-63 58.34 -63 57.68 -63 57 C-64.65 57.66 -66.3 58.32 -68 59 C-68 58.01 -68 57.02 -68 56 C-67.34 56 -66.68 56 -66 56 C-65.87625 55.0925 -65.7525 54.185 -65.625 53.25 C-65.07890323 50.41029677 -64.42736197 48.47409409 -63 46 C-61.68 46.33 -60.36 46.66 -59 47 C-58.67 45.35 -58.34 43.7 -58 42 C-59.485 42.495 -59.485 42.495 -61 43 C-60.67 41.68 -60.34 40.36 -60 39 C-58.02 38.505 -58.02 38.505 -56 38 C-56 36.35 -56 34.7 -56 33 C-55.34 33 -54.68 33 -54 33 C-54 32.34 -54 31.68 -54 31 C-52.35 30.67 -50.7 30.34 -49 30 C-49.66 29.34 -50.32 28.68 -51 28 C-50.01 27.34 -49.02 26.68 -48 26 C-47.67 25.01 -47.34 24.02 -47 23 C-46.01 23 -45.02 23 -44 23 C-43.896875 22.360625 -43.79375 21.72125 -43.6875 21.0625 C-43.460625 20.381875 -43.23375 19.70125 -43 19 C-39.86650268 17.95550089 -39.01031744 18.06576355 -36 19 C-36.495 17.02 -36.495 17.02 -37 15 C-35.35 14.34 -33.7 13.68 -32 13 C-32 12.34 -32 11.68 -32 11 C-30.865625 10.525625 -29.73125 10.05125 -28.5625 9.5625 C-25.24259834 8.36377917 -25.24259834 8.36377917 -24 7 C-22.00041636 6.95919217 -19.99954746 6.95745644 -18 7 C-18 6.34 -18 5.68 -18 5 C-16.02 5 -14.04 5 -12 5 C-12 5.99 -12 6.98 -12 8 C-11.34 8 -10.68 8 -10 8 C-10.66 6.35 -11.32 4.7 -12 3 C-11.071875 3.309375 -11.071875 3.309375 -10.125 3.625 C-9.073125 3.810625 -9.073125 3.810625 -8 4 C-7.34 3.34 -6.68 2.68 -6 2 C-2.875 2.375 -2.875 2.375 0 3 C0 2.01 0 1.02 0 0 Z " fill="#FBF9F8" transform="translate(97,18)"/>
<path d="M0 0 C6.26264412 4.32816123 11.33751134 9.3618528 13 17 C13.11212297 20.00425479 13.08397058 22.9953137 13 26 C9.91738544 26.1746397 6.83604167 26.28094067 3.75 26.375 C2.87730469 26.42527344 2.00460938 26.47554687 1.10546875 26.52734375 C-1.39446827 26.58459422 -3.5625576 26.56782622 -6 26 C-8.296875 23.1015625 -8.296875 23.1015625 -10 20 C-13.9091737 17.69815153 -17.58938951 17.7308637 -22.0625 17.75 C-23.27035156 17.74484375 -24.47820312 17.7396875 -25.72265625 17.734375 C-28.81648173 17.98512605 -30.47986503 18.25394806 -33 20 C-35.50031654 23.75047482 -35.53603554 25.55856266 -35 30 C-30.91313857 35.54766107 -26.21651342 36.31238603 -19.8125 37.5625 C-7.75505672 40.01912811 4.16849188 43.15931681 11.859375 53.5 C16.67874029 61.21098447 18.31068356 68.60078024 16.46875 77.59375 C14.14787102 85.96909588 10.19255494 92.04870963 3 97 C-8.91026087 103.15801063 -26.78466233 102.63085933 -39.6640625 100.3515625 C-46.54277309 98.0844945 -52.41213108 94.04730662 -56.34375 87.8984375 C-58.99035816 82.54850814 -60.05918676 76.96602572 -60 71 C-57.67697523 68.67697523 -52.30235837 69.62527338 -49.1875 69.5625 C-48.27162109 69.51673828 -47.35574219 69.47097656 -46.41210938 69.42382812 C-43.80967393 69.38023307 -41.53774484 69.41427917 -39 70 C-36.48828125 72.90234375 -36.48828125 72.90234375 -35 76 C-31.34915815 79.65084185 -27.10944529 79.18568458 -22.125 79.25 C-20.33449219 79.28867188 -20.33449219 79.28867188 -18.5078125 79.328125 C-14.51764703 78.95488012 -10.91684579 77.91684579 -8 75 C-7.90113647 73.37747508 -7.87028833 71.75052727 -7.875 70.125 C-7.87242188 69.24070312 -7.86984375 68.35640625 -7.8671875 67.4453125 C-7.89951415 64.86093709 -7.89951415 64.86093709 -9 62 C-12.8860922 59.85787131 -17.295254 59.26799073 -21.60351562 58.40283203 C-33.33759219 56.01131171 -46.28408066 53.22871132 -53.85546875 43.00390625 C-58.57013809 34.74921215 -60.69398403 26.40429675 -58.234375 17.10546875 C-55.26676658 8.30862951 -51.63249642 4.0933484 -43.73046875 -0.66796875 C-31.96505908 -6.40760351 -11.34392441 -7.07749238 0 0 Z " fill="#B37C53" transform="translate(130,53)"/>
<path d="M0 0 C2.31 0 4.62 0 7 0 C7.33 4.62 7.66 9.24 8 14 C8.99 13.34 9.98 12.68 11 12 C15.04257341 11.33899402 19.20172043 11.08071655 22.91796875 12.98046875 C26.4010723 15.77555184 28.67906879 18.70763419 29.30078125 23.1484375 C29.32727098 28.18148561 28.87674288 31.68488568 26 36 C22.6182587 39.06470305 19.53017326 40.14460063 15 40.1875 C13.9790625 40.20876953 13.9790625 40.20876953 12.9375 40.23046875 C11 40 11 40 8 38 C7.67 38.66 7.34 39.32 7 40 C4.69 40 2.38 40 0 40 C0 26.8 0 13.6 0 0 Z " fill="#33312E" transform="translate(378,66)"/>
<path d="M0 0 C1.28583984 0.00580078 1.28583984 0.00580078 2.59765625 0.01171875 C4.9375 0.3125 4.9375 0.3125 7.9375 2.3125 C8.2675 1.6525 8.5975 0.9925 8.9375 0.3125 C11.2475 0.3125 13.5575 0.3125 15.9375 0.3125 C15.9375 9.5525 15.9375 18.7925 15.9375 28.3125 C13.6275 28.3125 11.3175 28.3125 8.9375 28.3125 C8.6075 27.6525 8.2775 26.9925 7.9375 26.3125 C7.4425 26.6425 6.9475 26.9725 6.4375 27.3125 C2.91600551 28.7210978 -0.35656906 28.89088228 -4.0625 28.3125 C-8.4229287 26.09114953 -11.26462362 23.90707298 -13.0625 19.3125 C-13.75079606 14.2395031 -13.65658188 10.47944654 -11.3125 5.875 C-7.75378395 1.82201784 -5.51602683 -0.10815739 0 0 Z " fill="#353330" transform="translate(423.0625,77.6875)"/>
<path d="M0 0 C1.28583984 0.00580078 1.28583984 0.00580078 2.59765625 0.01171875 C4.9375 0.3125 4.9375 0.3125 7.9375 2.3125 C8.2675 1.6525 8.5975 0.9925 8.9375 0.3125 C11.2475 0.3125 13.5575 0.3125 15.9375 0.3125 C15.9375 9.2225 15.9375 18.1325 15.9375 27.3125 C12.9375 27.3125 9.9375 27.3125 6.9375 27.3125 C5.9475 27.6425 4.9575 27.9725 3.9375 28.3125 C-0.75203585 28.69688818 -3.12693464 28.77145659 -7.375 26.6875 C-10.94345274 23.53398362 -12.68541044 20.90557266 -13.37890625 16.13671875 C-13.66216922 10.69989716 -12.69928951 7.5554211 -9.0625 3.3125 C-6.01350145 0.56383107 -4.0914301 -0.08022412 0 0 Z " fill="#33312F" transform="translate(303.0625,77.6875)"/>
<path d="M0 0 C2.31 0 4.62 0 7 0 C7.33 0.66 7.66 1.32 8 2 C8.99 1.34 9.98 0.68 11 0 C13.12109375 -0.265625 13.12109375 -0.265625 15.4375 -0.25 C16.19933594 -0.25515625 16.96117187 -0.2603125 17.74609375 -0.265625 C20.21443018 0.0252708 21.857686 0.77024344 24 2 C24.99 1.34 25.98 0.68 27 0 C30.3915846 -0.5461026 33.60763982 -0.54104628 37 0 C40.34625024 2.52676039 41.67977847 4.03933542 43 8 C43.08106686 9.55421729 43.10756898 11.11167027 43.09765625 12.66796875 C43.09443359 13.56064453 43.09121094 14.45332031 43.08789062 15.37304688 C43.07532227 16.76620117 43.07532227 16.76620117 43.0625 18.1875 C43.05798828 19.12787109 43.05347656 20.06824219 43.04882812 21.03710938 C43.03704626 23.35813712 43.02059558 25.67903644 43 28 C40.69 28 38.38 28 36 28 C35.970271 27.15236084 35.970271 27.15236084 35.93994141 26.28759766 C35.84481764 23.73292003 35.73508942 21.17907459 35.625 18.625 C35.5940625 17.73554687 35.563125 16.84609375 35.53125 15.9296875 C35.47324219 14.65351562 35.47324219 14.65351562 35.4140625 13.3515625 C35.3826416 12.56604004 35.3512207 11.78051758 35.31884766 10.97119141 C35.1600535 8.76997061 35.1600535 8.76997061 33 7 C30.5 6.66666667 30.5 6.66666667 28 7 C25.6031335 9.3968665 25.71718867 10.07028314 25.5859375 13.3515625 C25.54726563 14.20234375 25.50859375 15.053125 25.46875 15.9296875 C25.42234375 17.26386719 25.42234375 17.26386719 25.375 18.625 C25.33632813 19.5221875 25.29765625 20.419375 25.2578125 21.34375 C25.16340643 23.5622927 25.07783252 25.78082403 25 28 C22.69 28 20.38 28 18 28 C17.98018066 27.43490723 17.96036133 26.86981445 17.93994141 26.28759766 C17.84481764 23.73292003 17.73508942 21.17907459 17.625 18.625 C17.5940625 17.73554687 17.563125 16.84609375 17.53125 15.9296875 C17.49257813 15.07890625 17.45390625 14.228125 17.4140625 13.3515625 C17.36693115 12.17327881 17.36693115 12.17327881 17.31884766 10.97119141 C17.1600535 8.76997061 17.1600535 8.76997061 15 7 C12.5 6.66666667 12.5 6.66666667 10 7 C7.6031335 9.3968665 7.71718867 10.07028314 7.5859375 13.3515625 C7.52792969 14.62773438 7.52792969 14.62773438 7.46875 15.9296875 C7.4378125 16.81914063 7.406875 17.70859375 7.375 18.625 C7.31699219 19.97078125 7.31699219 19.97078125 7.2578125 21.34375 C7.16340643 23.5622927 7.07783252 25.78082403 7 28 C4.69 28 2.38 28 0 28 C0 18.76 0 9.52 0 0 Z " fill="#34322F" transform="translate(243,78)"/>
<path d="M0 0 C4.05453604 2.02726802 6.58589848 4.19658649 9 8 C9.88745203 12.77305281 9.60096333 17.5546217 7.4375 21.9375 C4.15990098 26.05550903 1.1745275 27.50877718 -4.01953125 28.3125 C-7.6220718 28.53292313 -10.00698865 27.99664007 -13.25 26.4375 C-17.59423647 22.58692676 -19.68940053 19.2130212 -20.5 13.4375 C-19.74750832 8.26411968 -17.28722865 5.48226329 -13.9375 1.625 C-9.39679453 -0.88687962 -5.06983511 -0.74446918 0 0 Z " fill="#353330" transform="translate(489,78)"/>
<path d="M0 0 C2.6169064 1.03650018 3.88099117 2.04828134 6 4 C6 4.99 6 5.98 6 7 C3.1875 7.625 3.1875 7.625 0 8 C-0.99 7.34 -1.98 6.68 -3 6 C-5.62531524 5.83286431 -5.62531524 5.83286431 -8 6 C-8 6.99 -8 7.98 -8 9 C-7.25234375 9.17015625 -6.5046875 9.3403125 -5.734375 9.515625 C-4.74953125 9.75796875 -3.7646875 10.0003125 -2.75 10.25 C-1.28820312 10.59804687 -1.28820312 10.59804687 0.203125 10.953125 C3.37601544 12.14074321 4.89715693 13.36411067 7 16 C7.625 19.4375 7.625 19.4375 7 23 C4.27740758 26.45842821 2.68973803 27.66509697 -1.6015625 28.515625 C-6.69252625 28.82416826 -10.16198402 28.46027722 -14.1875 25.1875 C-15.85546875 23.60546875 -15.85546875 23.60546875 -17 22 C-17 21.01 -17 20.02 -17 19 C-14.1875 18.3125 -14.1875 18.3125 -11 18 C-10 19 -9 20 -8 21 C-4.37464024 21.2503577 -4.37464024 21.2503577 -1 21 C-1 20.01 -1 19.02 -1 18 C-2.24716797 17.61908203 -2.24716797 17.61908203 -3.51953125 17.23046875 C-4.60621094 16.88628906 -5.69289062 16.54210937 -6.8125 16.1875 C-8.43091797 15.68283203 -8.43091797 15.68283203 -10.08203125 15.16796875 C-12.84564072 14.06178504 -14.2543069 13.36744681 -16 11 C-16.4375 8.0625 -16.4375 8.0625 -16 5 C-11.47884582 -0.57609016 -6.83958746 -0.77389828 0 0 Z " fill="#363432" transform="translate(231,78)"/>
<path d="M0 0 C2.31 0 4.62 0 7 0 C7 2.97 7 5.94 7 9 C9.64 9 12.28 9 15 9 C15 11.31 15 13.62 15 16 C12.36 16 9.72 16 7 16 C7 20.62 7 25.24 7 30 C9.31 30 11.62 30 14 30 C14.33 31.98 14.66 33.96 15 36 C11.36217368 37.21260877 8.82264001 37.39544552 5 37 C2.25119667 34.99690378 0.28742174 33.44626677 -0.3984375 29.99511719 C-0.49182108 27.70620435 -0.43711794 25.47471857 -0.3125 23.1875 C-0.28994141 22.39923828 -0.26738281 21.61097656 -0.24414062 20.79882812 C-0.18554161 18.86506071 -0.09586827 16.93227833 0 15 C-1.65 15 -3.3 15 -5 15 C-5 13.02 -5 11.04 -5 9 C-3.35 9 -1.7 9 0 9 C0 6.03 0 3.06 0 0 Z " fill="#3B3A37" transform="translate(505,69)"/>
<path d="M0 0 C2.31 0 4.62 0 7 0 C7 2.97 7 5.94 7 9 C9.64 9 12.28 9 15 9 C15 11.31 15 13.62 15 16 C12.36 16 9.72 16 7 16 C7 20.62 7 25.24 7 30 C9.31 30 11.62 30 14 30 C14.33 31.98 14.66 33.96 15 36 C11.36217368 37.21260877 8.82264001 37.39544552 5 37 C2.25119667 34.99690378 0.28742174 33.44626677 -0.3984375 29.99511719 C-0.49182108 27.70620435 -0.43711794 25.47471857 -0.3125 23.1875 C-0.28994141 22.39923828 -0.26738281 21.61097656 -0.24414062 20.79882812 C-0.18554161 18.86506071 -0.09586827 16.93227833 0 15 C-1.65 15 -3.3 15 -5 15 C-5 13.02 -5 11.04 -5 9 C-3.35 9 -1.7 9 0 9 C0 6.03 0 3.06 0 0 Z " fill="#3A3836" transform="translate(347,69)"/>
<path d="M0 0 C0.33 0.99 0.66 1.98 1 3 C1.66 3.309375 2.32 3.61875 3 3.9375 C5 5 5 5 5.8125 7 C6 9 6 9 5 11 C5.99 11 6.98 11 8 11 C7.979375 11.9075 7.95875 12.815 7.9375 13.75 C7.86841007 16.84256815 7.86841007 16.84256815 8.5625 19.125 C9 21 9 21 8.5 22.8125 C7.77149938 25.9996902 8.47646832 28.80063972 9 32 C9 35 9 38 9 41 C8.34 40.67 7.68 40.34 7 40 C6.67 40.66 6.34 41.32 6 42 C6.99 42 7.98 42 9 42 C8.67 43.65 8.34 45.3 8 47 C7.34 47 6.68 47 6 47 C6.33 48.98 6.66 50.96 7 53 C6.34 53 5.68 53 5 53 C5 54.65 5 56.3 5 58 C4.01 58.495 4.01 58.495 3 59 C2.67 59.99 2.34 60.98 2 62 C1.505 62.495 1.505 62.495 1 63 C1.33 63.66 1.66 64.32 2 65 C1.0625 67.125 1.0625 67.125 0 69 C-1.65 69 -3.3 69 -5 69 C-5 68.34 -5 67.68 -5 67 C-6.32 66.67 -7.64 66.34 -9 66 C-9 65.34 -9 64.68 -9 64 C-8.01 64 -7.02 64 -6 64 C-6.33 63.34 -6.66 62.68 -7 62 C-3.125 61 -3.125 61 -2 61 C-2 60.34 -2 59.68 -2 59 C-3.98 59.495 -3.98 59.495 -6 60 C-5.67 59.01 -5.34 58.02 -5 57 C-2.9375 56.3125 -2.9375 56.3125 -1 56 C-0.67 54.68 -0.34 53.36 0 52 C0.66 52 1.32 52 2 52 C2 51.34 2 50.68 2 50 C0.02 50.495 0.02 50.495 -2 51 C-2 50.34 -2 49.68 -2 49 C0.475 48.505 0.475 48.505 3 48 C3.33 48.66 3.66 49.32 4 50 C3.49396008 47.83125748 3.00016187 46.00032373 2 44 C2.99 43.505 2.99 43.505 4 43 C3.01 43 2.02 43 1 43 C0.67 41.35 0.34 39.7 0 38 C-0.99 38.495 -0.99 38.495 -2 39 C-1.34 37.02 -0.68 35.04 0 33 C0.33 33.99 0.66 34.98 1 36 C2.32 36 3.64 36 5 36 C5 35.01 5 34.02 5 33 C3.515 33.495 3.515 33.495 2 34 C1.25 31.9375 1.25 31.9375 1 29 C1.859375 27.21484375 1.859375 27.21484375 3 25.375 C3.66 24.26125 4.32 23.1475 5 22 C4.67 21.01 4.34 20.02 4 19 C1.98491642 18.26676204 1.98491642 18.26676204 0 18 C0.99 17.67 1.98 17.34 3 17 C1.68 16.01 0.36 15.02 -1 14 C0.32 13.34 1.64 12.68 3 12 C2.01 12 1.02 12 0 12 C0 11.34 0 10.68 0 10 C0.99 10 1.98 10 3 10 C3 8.68 3 7.36 3 6 C2.34 6.66 1.68 7.32 1 8 C0.01 8.495 0.01 8.495 -1 9 C-1.66 7.02 -2.32 5.04 -3 3 C-2.34 3 -1.68 3 -1 3 C-0.67 2.01 -0.34 1.02 0 0 Z " fill="#BC9E89" transform="translate(182,71)"/>
<path d="M0 0 C0.99 0.33 1.98 0.66 3 1 C3.33 2.98 3.66 4.96 4 7 C4.66 6.01 5.32 5.02 6 4 C8.86724686 4.57344937 9.8614515 4.8614515 12 7 C10.35 7.99 8.7 8.98 7 10 C9.31 9.34 11.62 8.68 14 8 C17 11.75 17 11.75 17 14 C17.66 13.34 18.32 12.68 19 12 C19.33 12.99 19.66 13.98 20 15 C22.01508358 15.73323796 22.01508358 15.73323796 24 16 C24.495 19.96 24.495 19.96 25 24 C25.66 24 26.32 24 27 24 C27.495 22.515 27.495 22.515 28 21 C28.495 22.485 28.495 22.485 29 24 C28.505 24.495 28.505 24.495 28 25 C28.99 25.33 29.98 25.66 31 26 C31.66666667 28 32.33333333 30 33 32 C33.99 32.33 34.98 32.66 36 33 C36.495 35.97 36.495 35.97 37 39 C37.66 39 38.32 39 39 39 C40.4606285 41.64738916 41 42.89448334 41 46 C40.34 46 39.68 46 39 46 C38.67 45.34 38.34 44.68 38 44 C37.01 44 36.02 44 35 44 C34.34 44.66 33.68 45.32 33 46 C32.67 45.01 32.34 44.02 32 43 C32.99 42.01 33.98 41.02 35 40 C32.36 40 29.72 40 27 40 C27.33 39.01 27.66 38.02 28 37 C25.525 35.02 25.525 35.02 23 33 C23.66 32.67 24.32 32.34 25 32 C24.835 31.38125 24.67 30.7625 24.5 30.125 C24 28 24 28 24 26 C22.35 25.67 20.7 25.34 19 25 C19.20625 24.236875 19.4125 23.47375 19.625 22.6875 C20.33391203 19.78114056 20.33391203 19.78114056 18 17 C18 18.65 18 20.3 18 22 C17.34 22 16.68 22 16 22 C16 21.01 16 20.02 16 19 C15.401875 18.896875 14.80375 18.79375 14.1875 18.6875 C11.68741714 17.90175967 10.62464918 17.03081147 9 15 C9 14.34 9 13.68 9 13 C10.65 13.66 12.3 14.32 14 15 C14 14.34 14 13.68 14 13 C11.36 12.67 8.72 12.34 6 12 C5.67 12.66 5.34 13.32 5 14 C3.35 13.67 1.7 13.34 0 13 C0.33 12.34 0.66 11.68 1 11 C1.66 11 2.32 11 3 11 C3 10.34 3 9.68 3 9 C1.8553125 9.2784375 1.8553125 9.2784375 0.6875 9.5625 C-2 10 -2 10 -5 9 C-5.6837045 7.67532254 -6.34964186 6.34136367 -7 5 C-7.99 4.34 -8.98 3.68 -10 3 C-8.68 2.67 -7.36 2.34 -6 2 C-5.67 2.66 -5.34 3.32 -5 4 C-1.72226496 3.24849977 -1.72226496 3.24849977 0 0 Z M26 29 C26.33 29.99 26.66 30.98 27 32 C27 31.01 27 30.02 27 29 C26.67 29 26.34 29 26 29 Z " fill="#D7C5B8" transform="translate(145,27)"/>
<path d="M0 0 C2.31 0 4.62 0 7 0 C7 13.2 7 26.4 7 40 C4.69 40 2.38 40 0 40 C0 26.8 0 13.6 0 0 Z " fill="#33312E" transform="translate(458,66)"/>
<path d="M0 0 C2.31 0 4.62 0 7 0 C7 13.2 7 26.4 7 40 C4.69 40 2.38 40 0 40 C0 26.8 0 13.6 0 0 Z " fill="#34322F" transform="translate(445,66)"/>
<path d="M0 0 C2.31 0 4.62 0 7 0 C7.33 0.99 7.66 1.98 8 3 C8.391875 2.505 8.78375 2.01 9.1875 1.5 C11.55091715 -0.45593143 13.01435003 -0.24207973 16 0 C16 1.98 16 3.96 16 6 C15.05125 6.268125 14.1025 6.53625 13.125 6.8125 C9.74732727 7.74986588 9.74732727 7.74986588 8 11 C7.6373883 12.92744369 7.6373883 12.92744369 7.5859375 15.01171875 C7.54726563 15.76904297 7.50859375 16.52636719 7.46875 17.30664062 C7.4378125 18.09232422 7.406875 18.87800781 7.375 19.6875 C7.33632813 20.48478516 7.29765625 21.28207031 7.2578125 22.10351562 C7.16367506 24.06863475 7.08075368 26.0342854 7 28 C4.69 28 2.38 28 0 28 C0 18.76 0 9.52 0 0 Z " fill="#373532" transform="translate(325,78)"/>
<path d="M0 0 C1.423125 0.2784375 1.423125 0.2784375 2.875 0.5625 C5.89868793 1.28686632 5.89868793 1.28686632 8 0 C9.54613014 0.08651631 11.08909387 0.24002636 12.625 0.4375 C13.85089844 0.59025391 13.85089844 0.59025391 15.1015625 0.74609375 C16.04128906 0.87177734 16.04128906 0.87177734 17 1 C17 1.66 17 2.32 17 3 C18.85625 3.2475 18.85625 3.2475 20.75 3.5 C21.79414063 3.63921875 21.79414063 3.63921875 22.859375 3.78125 C25.30458395 4.06777357 25.30458395 4.06777357 29 4 C29 4.66 29 5.32 29 6 C31.31 6.33 33.62 6.66 36 7 C36 8.32 36 9.64 36 11 C32.37 11 28.74 11 25 11 C24.67 11.66 24.34 12.32 24 13 C23.01 12.67 22.02 12.34 21 12 C20.67 10.02 20.34 8.04 20 6 C18.95550089 9.13349732 19.06576355 9.98968256 20 13 C19.34 13 18.68 13 18 13 C17.67 12.34 17.34 11.68 17 11 C16.05125 11.20625 15.1025 11.4125 14.125 11.625 C13.09375 11.74875 12.0625 11.8725 11 12 C10.34 11.34 9.68 10.68 9 10 C5.90073181 10.32198966 5.90073181 10.32198966 3 11 C2.06934867 8.39417629 1.85082593 7.35801776 2.9375 4.75 C3.4634375 3.88375 3.4634375 3.88375 4 3 C2.68 2.34 1.36 1.68 0 1 C0 0.67 0 0.34 0 0 Z " fill="#F2E7DF" transform="translate(107,18)"/>
<path d="M0 0 C2.4375 1.5625 2.4375 1.5625 4 4 C4.72468526 8.42863214 4.49454049 10.28066838 1.9375 14 C-1 16 -1 16 -4.625 16.0625 C-8 15 -8 15 -9.9375 13.375 C-11.43699866 10.02317947 -11.45377473 7.63019782 -11 4 C-8.11188513 -0.5054592 -5.11821063 -0.73117295 0 0 Z " fill="#F9F9F9" transform="translate(396,84)"/>
<path d="M0 0 C2.4375 1.5625 2.4375 1.5625 4 4 C4.72468526 8.42863214 4.49454049 10.28066838 1.9375 14 C-1 16 -1 16 -4.625 16.125 C-8 15 -8 15 -9.9375 12.8125 C-11.17210205 9.54443574 -11.51568151 7.46243298 -11 4 C-8.05899778 -0.47032338 -5.13105401 -0.73300772 0 0 Z " fill="#F9F9F8" transform="translate(308,84)"/>
<path d="M0 0 C2.4375 1.5625 2.4375 1.5625 4 4 C4.45377473 7.63019782 4.43699866 10.02317947 2.9375 13.375 C-0.02028188 15.85572029 -2.18105459 16.06584389 -6 16 C-8.9375 14 -8.9375 14 -11 11 C-11.63007693 7.00951279 -11.63021887 4.98314143 -9.4375 1.5625 C-6.05782196 -0.60396028 -3.94016013 -0.56288002 0 0 Z " fill="#FAFAFA" transform="translate(428,84)"/>
<path d="M0 0 C3.5 0.5625 3.5 0.5625 5.9375 2.0625 C7.83148708 5.09287933 8.14063361 7.12106953 7.94921875 10.65234375 C7.5 12.5625 7.5 12.5625 5.375 15.125 C1.81607124 16.90446438 0.24980806 16.7852635 -3.5 15.5625 C-6.33336378 13.80386041 -6.52887833 12.458538 -7.4375 9.1875 C-7.5 5.5625 -7.5 5.5625 -6 2.625 C-3.5 0.5625 -3.5 0.5625 0 0 Z " fill="#F5F5F5" transform="translate(483.5,83.4375)"/>
<path d="M0 0 C1.32 0 2.64 0 4 0 C4 0.66 4 1.32 4 2 C5.32 2.66 6.64 3.32 8 4 C8.33 3.67 8.66 3.34 9 3 C8.34 2.67 7.68 2.34 7 2 C7 1.34 7 0.68 7 0 C8.32 0 9.64 0 11 0 C14 6 14 6 14.9375 8.25 C16.27721565 10.45659048 17.63953705 11.05581482 20 12 C20 13.32 20 14.64 20 16 C20.99 16 21.98 16 23 16 C22.67 16.66 22.34 17.32 22 18 C22.66 18.33 23.32 18.66 24 19 C23.01 19 22.02 19 21 19 C21 19.66 21 20.32 21 21 C24.465 20.505 24.465 20.505 28 20 C28.33 20.66 28.66 21.32 29 22 C28.34 22.33 27.68 22.66 27 23 C28.32 23.66 29.64 24.32 31 25 C30.67 23.68 30.34 22.36 30 21 C30.66 21 31.32 21 32 21 C32.495 23.475 32.495 23.475 33 26 C31.02 26.66 29.04 27.32 27 28 C26.79375 27.38125 26.5875 26.7625 26.375 26.125 C24.44460937 23.14166903 22.34359163 22.9553119 19 22 C18.01 21.34 17.02 20.68 16 20 C16 19.34 16 18.68 16 18 C15.34 18 14.68 18 14 18 C15 16 16 14 17 12 C16.34 12 15.68 12 15 12 C14.67 12.99 14.34 13.98 14 15 C11.04709864 13.62901008 8.39580248 12.22467373 6 10 C6 8.68 6 7.36 6 6 C5.34 6 4.68 6 4 6 C3.67 5.01 3.34 4.02 3 3 C1.50014391 1.33289654 1.50014391 1.33289654 0 0 Z " fill="#CCB4A3" transform="translate(38,145)"/>
<path d="M0 0 C0.33 0 0.66 0 1 0 C0.938125 0.94875 0.87625 1.8975 0.8125 2.875 C0.874375 3.90625 0.93625 4.9375 1 6 C1.99 6.66 2.98 7.32 4 8 C3.34 10.31 2.68 12.62 2 15 C1.01 14.34 0.02 13.68 -1 13 C-0.814375 13.94875 -0.62875 14.8975 -0.4375 15.875 C0 19 0 19 -1 21 C-1.99 21.33 -2.98 21.66 -4 22 C-3.67 23.65 -3.34 25.3 -3 27 C-3.99 27 -4.98 27 -6 27 C-6.33 26.34 -6.66 25.68 -7 25 C-7.66 25.66 -8.32 26.32 -9 27 C-9.33 26.34 -9.66 25.68 -10 25 C-10.66 25.33 -11.32 25.66 -12 26 C-11.67 24.35 -11.34 22.7 -11 21 C-10.34 21 -9.68 21 -9 21 C-9.33 19.68 -9.66 18.36 -10 17 C-7 15 -7 15 -4 15 C-4 14.34 -4 13.68 -4 13 C-5.65 13.66 -7.3 14.32 -9 15 C-9 14.01 -9 13.02 -9 12 C-8.34 12 -7.68 12 -7 12 C-6.814375 10.63875 -6.814375 10.63875 -6.625 9.25 C-6.07890323 6.41029677 -5.42736197 4.47409409 -4 2 C-2.68 2.33 -1.36 2.66 0 3 C0 2.01 0 1.02 0 0 Z " fill="#E3D6CD" transform="translate(38,62)"/>
<path d="M0 0 C0 3.96 0 7.92 0 12 C-8.10522548 13.57265569 -8.10522548 13.57265569 -12.125 11 C-14 8 -14 8 -14 4.3125 C-11.77757879 -3.04927025 -6.20960652 -0.80644241 0 0 Z " fill="#3C3A37" transform="translate(412,124)"/>
<path d="M0 0 C0.99 0 1.98 0 3 0 C3 1.32 3 2.64 3 4 C5.97 4.33 8.94 4.66 12 5 C12 8.96 12 12.92 12 17 C3.50390625 17.09765625 3.50390625 17.09765625 1 17 C0 16 0 16 -0.09765625 13.93359375 C-0.08025391 12.69802734 -0.08025391 12.69802734 -0.0625 11.4375 C-0.05347656 10.61121094 -0.04445313 9.78492188 -0.03515625 8.93359375 C-0.02355469 8.29550781 -0.01195312 7.65742187 0 7 C-0.66 7 -1.32 7 -2 7 C-2 6.34 -2 5.68 -2 5 C-1.34 5 -0.68 5 0 5 C0 3.35 0 1.7 0 0 Z " fill="#EBEBEB" transform="translate(416,119)"/>
<path d="M0 0 C2.375 1.625 2.375 1.625 4 4 C4.5625 7 4.5625 7 4 10 C1.875 12.4375 1.875 12.4375 -1 14 C-4.56090901 14 -6.25697245 13.69349238 -8.875 11.25 C-10.24863504 8.50272993 -10.53062116 7.03212094 -10 4 C-7.16979976 -0.02759265 -4.82432618 -0.80405436 0 0 Z " fill="#444340" transform="translate(339,123)"/>
<path d="M0 0 C2.375 1.625 2.375 1.625 4 4 C4.5625 7 4.5625 7 4 10 C1.875 12.4375 1.875 12.4375 -1 14 C-4.56090901 14 -6.25697245 13.69349238 -8.875 11.25 C-10.24863504 8.50272993 -10.53062116 7.03212094 -10 4 C-7.16979976 -0.02759265 -4.82432618 -0.80405436 0 0 Z " fill="#444340" transform="translate(223,123)"/>
<path d="M0 0 C2.9375 2.5 2.9375 2.5 5 5 C3.0625 5.5625 3.0625 5.5625 1 6 C0.67 5.67 0.34 5.34 0 5 C-3.5 4.83333333 -3.5 4.83333333 -7 5 C-8.33648017 6.11101184 -8.33648017 6.11101184 -8.125 8.9375 C-8.21325664 11.91545728 -8.21325664 11.91545728 -7 14 C-4.36 14 -1.72 14 1 14 C1 13.34 1 12.68 1 12 C2.32 12.33 3.64 12.66 5 13 C3.63016497 16.16115776 3.0109362 16.9927092 0 19 C-4.62362084 19.50256748 -7.3198911 18.86230692 -11 16 C-13.32402951 12.79062591 -13.47570691 9.88493979 -13 6 C-9.27891473 0.41837209 -6.70473214 -0.68183717 0 0 Z " fill="#43413E" transform="translate(277,118)"/>
<path d="M0 0 C0.99 0 1.98 0 3 0 C3 5.94 3 11.88 3 18 C-1.5532212 16.8616947 -2.08509512 16.07612012 -4.75 12.4375 C-5.67039062 11.19806641 -5.67039062 11.19806641 -6.609375 9.93359375 C-7.06828125 9.29550781 -7.5271875 8.65742187 -8 8 C-8.33 11.3 -8.66 14.6 -9 18 C-9.99 18 -10.98 18 -12 18 C-12 12.39 -12 6.78 -12 1 C-6.05337788 2.48665553 -4.57433978 6.11965145 -1 11 C-0.67 7.37 -0.34 3.74 0 0 Z " fill="#33312E" transform="translate(393,118)"/>
<path d="M0 0 C2.4375 1.5625 2.4375 1.5625 4 4 C4 7.81153499 3.80074051 10.05097421 1.3125 13 C-1.89970645 14.38906225 -3.6936636 14.05521374 -7 13 C-9.27605184 10.87568495 -9.90218604 9.55893694 -10.4375 6.5 C-9.41545969 0.65976965 -5.50319355 -0.91719892 0 0 Z " fill="#42403E" transform="translate(440,123)"/>
<path d="M0 0 C2.375 1.75 2.375 1.75 4 4 C4 5.32 4 6.64 4 8 C-0.455 8.495 -0.455 8.495 -5 9 C-1.29847322 9.92538169 -0.36541838 10.08174162 3 9 C3 9.99 3 10.98 3 12 C0.58978936 13.51754003 -0.68335622 14.02316906 -3.5625 13.8125 C-6.31834223 12.89388592 -7.44223053 12.459636 -9 10 C-9.63316583 4.09045226 -9.63316583 4.09045226 -7.875 1.0625 C-5.06487736 -0.52990283 -3.17235276 -0.45319325 0 0 Z " fill="#464442" transform="translate(369,123)"/>
<path d="M0 0 C2.375 1.75 2.375 1.75 4 4 C4 5.32 4 6.64 4 8 C-0.455 8.495 -0.455 8.495 -5 9 C-1.29847322 9.92538169 -0.36541838 10.08174162 3 9 C3 9.99 3 10.98 3 12 C0.58978936 13.51754003 -0.68335622 14.02316906 -3.5625 13.8125 C-6.31834223 12.89388592 -7.44223053 12.459636 -9 10 C-9.63316583 4.09045226 -9.63316583 4.09045226 -7.875 1.0625 C-5.06487736 -0.52990283 -3.17235276 -0.45319325 0 0 Z " fill="#42403D" transform="translate(253,123)"/>
<path d="M0 0 C1.32 0 2.64 0 4 0 C4 0.66 4 1.32 4 2 C3.01 2 2.02 2 1 2 C2.83333333 5.16666667 2.83333333 5.16666667 6 7 C6.6875 9.625 6.6875 9.625 7 12 C5.35 12 3.7 12 2 12 C2.33 12.99 2.66 13.98 3 15 C3.33 14.34 3.66 13.68 4 13 C4.66 13.33 5.32 13.66 6 14 C5.79375 14.763125 5.5875 15.52625 5.375 16.3125 C4.66608797 19.21885944 4.66608797 19.21885944 7 22 C6.34 22.33 5.68 22.66 5 23 C5.226875 23.763125 5.45375 24.52625 5.6875 25.3125 C5.790625 26.199375 5.89375 27.08625 6 28 C4.5625 29.8125 4.5625 29.8125 3 31 C4.32 31.66 5.64 32.32 7 33 C5.68 33.66 4.36 34.32 3 35 C0.67409146 31.36576791 0.83734167 28.22911669 1 24 C1.66 24 2.32 24 3 24 C3 23.34 3 22.68 3 22 C2.01 22.33 1.02 22.66 0 23 C0.33 21.35 0.66 19.7 1 18 C0.34 18 -0.32 18 -1 18 C-0.34 16.35 0.32 14.7 1 13 C0.34 13 -0.32 13 -1 13 C-0.67 12.34 -0.34 11.68 0 11 C0.99 11 1.98 11 3 11 C1.68 10.67 0.36 10.34 -1 10 C-1 9.34 -1 8.68 -1 8 C-0.01 7.67 0.98 7.34 2 7 C1.01 6.67 0.02 6.34 -1 6 C-0.67 4.02 -0.34 2.04 0 0 Z " fill="#B29179" transform="translate(26,90)"/>
<path d="M0 0 C0.33 0.99 0.66 1.98 1 3 C1.66 3.309375 2.32 3.61875 3 3.9375 C5 5 5 5 5.8125 7 C6 9 6 9 5 11 C5.99 11 6.98 11 8 11 C7.979375 11.9075 7.95875 12.815 7.9375 13.75 C7.86841007 16.84256815 7.86841007 16.84256815 8.5625 19.125 C9.09401171 21.40290733 8.56112966 22.75548136 8 25 C8.37907282 27.18703385 8.37907282 27.18703385 9 29 C7.68 29 6.36 29 5 29 C5 28.01 5 27.02 5 26 C4.67 25.34 4.34 24.68 4 24 C4 22.33333333 4 20.66666667 4 19 C2.68 18.67 1.36 18.34 0 18 C0.99 17.67 1.98 17.34 3 17 C1.68 16.01 0.36 15.02 -1 14 C0.32 13.34 1.64 12.68 3 12 C2.01 12 1.02 12 0 12 C0 11.34 0 10.68 0 10 C0.99 10 1.98 10 3 10 C3 8.68 3 7.36 3 6 C2.34 6.66 1.68 7.32 1 8 C0.01 8.495 0.01 8.495 -1 9 C-1.66 7.02 -2.32 5.04 -3 3 C-2.34 3 -1.68 3 -1 3 C-0.67 2.01 -0.34 1.02 0 0 Z " fill="#B79781" transform="translate(182,71)"/>
<path d="M0 0 C1.32 0.66 2.64 1.32 4 2 C3.67 2.33 3.34 2.66 3 3 C4.485 3.99 4.485 3.99 6 5 C3.09399739 6.25664978 1.20395416 7 -2 7 C-2.33 7.99 -2.66 8.98 -3 10 C-5.31 10 -7.62 10 -10 10 C-9.67 10.66 -9.34 11.32 -9 12 C-10.72681437 12.50806447 -12.45657979 13.00610467 -14.1875 13.5 C-15.15042969 13.7784375 -16.11335938 14.056875 -17.10546875 14.34375 C-19.86507665 14.96941009 -22.18817361 15.03780607 -25 15 C-25.99 15.33 -26.98 15.66 -28 16 C-27.6875 14.0625 -27.6875 14.0625 -27 12 C-24 11 -24 11 -21 12 C-20.67 11.34 -20.34 10.68 -20 10 C-20 10.66 -20 11.32 -20 12 C-19.01 12 -18.02 12 -17 12 C-17 10.35 -17 8.7 -17 7 C-16.401875 7.185625 -15.80375 7.37125 -15.1875 7.5625 C-12.83591238 8.22093687 -12.83591238 8.22093687 -10 7 C-7.3125 7.4375 -7.3125 7.4375 -5 8 C-5.33 7.01 -5.66 6.02 -6 5 C-5.0625 2.8125 -5.0625 2.8125 -4 1 C-2 3 -2 3 -1 5 C-0.34 4.67 0.32 4.34 1 4 C0.67 2.68 0.34 1.36 0 0 Z " fill="#B69075" transform="translate(144,168)"/>
<path d="M0 0 C1.588125 -0.061875 3.17625 -0.12375 4.8125 -0.1875 C6.15248047 -0.23970703 6.15248047 -0.23970703 7.51953125 -0.29296875 C10 0 10 0 11.8125 1.1875 C13.41326658 3.63077531 13.30028797 5.29260872 13.1875 8.1875 C13.16042969 9.08855469 13.13335937 9.98960937 13.10546875 10.91796875 C13.07066406 11.60503906 13.03585938 12.29210937 13 13 C11.68 13 10.36 13 9 13 C8.67 10.03 8.34 7.06 8 4 C7.01 4 6.02 4 5 4 C4.67 6.97 4.34 9.94 4 13 C2.68 13 1.36 13 0 13 C0 8.71 0 4.42 0 0 Z " fill="#474542" transform="translate(229,123)"/>
<path d="M0 0 C1.45742463 -0.08096803 2.91612807 -0.13917774 4.375 -0.1875 C5.18710938 -0.22230469 5.99921875 -0.25710937 6.8359375 -0.29296875 C7.55007812 -0.19628906 8.26421875 -0.09960938 9 0 C11 3 11 3 11 7 C9 6 9 6 7 4 C6.67 6.31 6.34 8.62 6 11 C5.4225 10.690625 4.845 10.38125 4.25 10.0625 C2.0661063 8.9327131 2.0661063 8.9327131 -0.1875 8.5 C-0.785625 8.335 -1.38375 8.17 -2 8 C-2.33 7.34 -2.66 6.68 -3 6 C-3.99 6 -4.98 6 -6 6 C-6 6.66 -6 7.32 -6 8 C-7.32 8 -8.64 8 -10 8 C-10.66 6.35 -11.32 4.7 -12 3 C-11.38125 3.20625 -10.7625 3.4125 -10.125 3.625 C-9.073125 3.810625 -9.073125 3.810625 -8 4 C-7.34 3.34 -6.68 2.68 -6 2 C-2.875 2.375 -2.875 2.375 0 3 C0 2.01 0 1.02 0 0 Z " fill="#EAD8CA" transform="translate(97,18)"/>
<path d="M0 0 C1.588125 -0.061875 3.17625 -0.12375 4.8125 -0.1875 C6.15248047 -0.23970703 6.15248047 -0.23970703 7.51953125 -0.29296875 C10 0 10 0 11.8125 1.1875 C13.41326658 3.63077531 13.30028797 5.29260872 13.1875 8.1875 C13.16042969 9.08855469 13.13335937 9.98960937 13.10546875 10.91796875 C13.07066406 11.60503906 13.03585937 12.29210937 13 13 C11.68 13 10.36 13 9 13 C8.67 10.03 8.34 7.06 8 4 C7.01 4 6.02 4 5 4 C4.67 6.97 4.34 9.94 4 13 C2.68 13 1.36 13 0 13 C0 8.71 0 4.42 0 0 Z " fill="#484744" transform="translate(345,123)"/>
<path d="M0 0 C1.32 0.33 2.64 0.66 4 1 C3.01 1.495 3.01 1.495 2 2 C2 2.66 2 3.32 2 4 C3.32 4 4.64 4 6 4 C5.814375 4.804375 5.62875 5.60875 5.4375 6.4375 C5.2209375 7.7059375 5.2209375 7.7059375 5 9 C5.33 9.33 5.66 9.66 6 10 C6.04080783 11.99958364 6.04254356 14.00045254 6 16 C5.34 15.67 4.68 15.34 4 15 C3.67 15.66 3.34 16.32 3 17 C3.99 17 4.98 17 6 17 C5.67 17.66 5.34 18.32 5 19 C4.34 18.67 3.68 18.34 3 18 C3 18.66 3 19.32 3 20 C1 19 1 19 0 17 C-0.66 17.33 -1.32 17.66 -2 18 C-2.33 16.35 -2.66 14.7 -3 13 C-3.99 13.495 -3.99 13.495 -5 14 C-4.34 12.02 -3.68 10.04 -3 8 C-2.67 8.99 -2.34 9.98 -2 11 C-0.68 11 0.64 11 2 11 C2 10.01 2 9.02 2 8 C1.01 8.33 0.02 8.66 -1 9 C-1.80967438 6.08517222 -2.21845993 4.53886783 -1.0625 1.6875 C-0.711875 1.130625 -0.36125 0.57375 0 0 Z " fill="#D2BEB0" transform="translate(185,96)"/>
<path d="M0 0 C0.99 0 1.98 0 3 0 C3.33 2.97 3.66 5.94 4 9 C4.4125 8.34 4.825 7.68 5.25 7 C5.8275 6.34 6.405 5.68 7 5 C8.32 5 9.64 5 11 5 C10.67 5.5775 10.34 6.155 10 6.75 C8.5325267 10.05181492 8.78311219 12.40355853 10 15.75 C10.33 16.4925 10.66 17.235 11 18 C7.64404172 17.40072174 5.62198774 16.15377564 3 14 C3 15.32 3 16.64 3 18 C2.01 18 1.02 18 0 18 C0 12.06 0 6.12 0 0 Z " fill="#393734" transform="translate(311,118)"/>
<path d="M0 0 C1.588125 -0.061875 3.17625 -0.12375 4.8125 -0.1875 C6.15248047 -0.23970703 6.15248047 -0.23970703 7.51953125 -0.29296875 C10 0 10 0 11.8125 1.1875 C13.41326658 3.63077531 13.30028797 5.29260872 13.1875 8.1875 C13.16042969 9.08855469 13.13335937 9.98960937 13.10546875 10.91796875 C13.07066406 11.60503906 13.03585937 12.29210937 13 13 C11.68 13 10.36 13 9 13 C8.67 10.03 8.34 7.06 8 4 C6.68 4.33 5.36 4.66 4 5 C3.67 7.64 3.34 10.28 3 13 C2.01 13 1.02 13 0 13 C0 8.71 0 4.42 0 0 Z " fill="#484644" transform="translate(446,123)"/>
<path d="M0 0 C1.98 0 3.96 0 6 0 C6 0.99 6 1.98 6 3 C3.525 2.505 3.525 2.505 1 2 C1.33 2.99 1.66 3.98 2 5 C1.0625 7.1875 1.0625 7.1875 0 9 C-0.66 9 -1.32 9 -2 9 C-1.67 7.68 -1.34 6.36 -1 5 C-4.16115776 6.36983503 -4.9927092 6.9890638 -7 10 C-7 10.99 -7 11.98 -7 13 C-7.33 12.34 -7.66 11.68 -8 11 C-8.99 11 -9.98 11 -11 11 C-11.33 11.99 -11.66 12.98 -12 14 C-12.66 13.34 -13.32 12.68 -14 12 C-16.58354218 11.83312552 -16.58354218 11.83312552 -19 12 C-19 11.34 -19 10.68 -19 10 C-17.35 9.34 -15.7 8.68 -14 8 C-14 7.34 -14 6.68 -14 6 C-12.865625 5.525625 -11.73125 5.05125 -10.5625 4.5625 C-7.24259834 3.36377917 -7.24259834 3.36377917 -6 2 C-4.00041636 1.95919217 -1.99954746 1.95745644 0 2 C0 1.34 0 0.68 0 0 Z " fill="#B39076" transform="translate(79,23)"/>
<path d="M0 0 C2 2 2 2 2 5 C-0.31 4.67 -2.62 4.34 -5 4 C-5.33 5.65 -5.66 7.3 -6 9 C-2.94736336 9.98120464 -1.05263664 9.98120464 2 9 C2 9.99 2 10.98 2 12 C-0.41021064 13.51754003 -1.68335622 14.02316906 -4.5625 13.8125 C-7.31834223 12.89388592 -8.44223053 12.459636 -10 10 C-10.36528977 6.5906288 -10.6140629 4.11976176 -8.9375 1.0625 C-5.92115289 -0.59162584 -3.36333392 -0.30575763 0 0 Z " fill="#403E3B" transform="translate(306,123)"/>
<path d="M0 0 C-0.66 1.32 -1.32 2.64 -2 4 C-2.66 3.67 -3.32 3.34 -4 3 C-3.731875 3.556875 -3.46375 4.11375 -3.1875 4.6875 C-3 7 -3 7 -5.125 9.625 C-7.77023761 11.81019628 -9.75999807 12.98171368 -13 14 C-12.01 14 -11.02 14 -10 14 C-10 14.66 -10 15.32 -10 16 C-10.78375 16.0825 -11.5675 16.165 -12.375 16.25 C-15.14749104 16.72806339 -15.14749104 16.72806339 -16.3125 19.0625 C-16.539375 19.701875 -16.76625 20.34125 -17 21 C-17 20.34 -17 19.68 -17 19 C-17.99 19.33 -18.98 19.66 -20 20 C-20 19.34 -20 18.68 -20 18 C-19.01 17.67 -18.02 17.34 -17 17 C-17.99 16.34 -18.98 15.68 -20 15 C-18.68 14.34 -17.36 13.68 -16 13 C-16 12.34 -16 11.68 -16 11 C-14.35 10.67 -12.7 10.34 -11 10 C-11 8.68 -11 7.36 -11 6 C-10.34 6 -9.68 6 -9 6 C-8.67 6.66 -8.34 7.32 -8 8 C-7.34 5.36 -6.68 2.72 -6 0 C-2 -1 -2 -1 0 0 Z " fill="#AB866B" transform="translate(180,142)"/>
<path d="M0 0 C0.33 0 0.66 0 1 0 C1 5.94 1 11.88 1 18 C0.01 17.34 -0.98 16.68 -2 16 C-2 15.34 -2 14.68 -2 14 C-2.5775 14.350625 -3.155 14.70125 -3.75 15.0625 C-6.35801776 16.14917407 -7.39417629 15.93065133 -10 15 C-10.625 12.625 -10.625 12.625 -11 10 C-10.34 9.34 -9.68 8.68 -9 8 C-6.54901444 8.39532025 -4.36095721 9.21301426 -2 10 C-1.34 6.7 -0.68 3.4 0 0 Z " fill="#E5E4E4" transform="translate(310,118)"/>
<path d="M0 0 C0.99 0.33 1.98 0.66 3 1 C4.125 4.3125 4.125 4.3125 5 8 C5.3403125 9.1446875 5.3403125 9.1446875 5.6875 10.3125 C6 12 6 12 5 14 C3.35 13.67 1.7 13.34 0 13 C0.33 12.34 0.66 11.68 1 11 C1.66 11 2.32 11 3 11 C3 10.34 3 9.68 3 9 C1.8553125 9.2784375 1.8553125 9.2784375 0.6875 9.5625 C-2 10 -2 10 -5 9 C-5.6837045 7.67532254 -6.34964186 6.34136367 -7 5 C-7.99 4.34 -8.98 3.68 -10 3 C-8.68 2.67 -7.36 2.34 -6 2 C-5.67 2.66 -5.34 3.32 -5 4 C-1.72226496 3.24849977 -1.72226496 3.24849977 0 0 Z " fill="#D8C4B5" transform="translate(145,27)"/>
<path d="M0 0 C0.99 0 1.98 0 3 0 C3.33 0.99 3.66 1.98 4 3 C4.66 3.33 5.32 3.66 6 4 C6 4.66 6 5.32 6 6 C6.66 6.33 7.32 6.66 8 7 C8.72693904 8.97888961 9.39816251 10.97954558 10 13 C6.20696275 11.99806563 3.28463659 11.18975773 0 9 C-0.99 8.67 -1.98 8.34 -3 8 C-1.125 2.25 -1.125 2.25 0 0 Z " fill="#E2D0C3" transform="translate(71,166)"/>
<path d="M0 0 C0.99 0 1.98 0 3 0 C3 1.32 3 2.64 3 4 C4.32 4 5.64 4 7 4 C7 4.99 7 5.98 7 7 C5.68 7 4.36 7 3 7 C3 9.31 3 11.62 3 14 C4.32 14.33 5.64 14.66 7 15 C7 15.66 7 16.32 7 17 C5.00045254 17.04254356 2.99958364 17.04080783 1 17 C0 16 0 16 -0.09765625 13.93359375 C-0.08025391 12.69802734 -0.08025391 12.69802734 -0.0625 11.4375 C-0.05347656 10.61121094 -0.04445313 9.78492188 -0.03515625 8.93359375 C-0.02355469 8.29550781 -0.01195312 7.65742187 0 7 C-0.66 7 -1.32 7 -2 7 C-2 6.34 -2 5.68 -2 5 C-1.34 5 -0.68 5 0 5 C0 3.35 0 1.7 0 0 Z " fill="#3B3A37" transform="translate(416,119)"/>
<path d="M0 0 C0.66 0 1.32 0 2 0 C1.34 1.98 0.68 3.96 0 6 C0.928125 5.79375 1.85625 5.5875 2.8125 5.375 C6 5 6 5 9 7 C8.44570313 7.20753906 7.89140625 7.41507813 7.3203125 7.62890625 C2.95391552 9.36545561 2.95391552 9.36545561 0.0234375 12.82421875 C-0.59316932 14.95011148 -0.59316932 14.95011148 -1 18 C-1.33 18 -1.66 18 -2 18 C-2 16.35 -2 14.7 -2 13 C-2.66 13 -3.32 13 -4 13 C-4 12.34 -4 11.68 -4 11 C-4.99 11.33 -5.98 11.66 -7 12 C-6.67 10.68 -6.34 9.36 -6 8 C-4.68 7.67 -3.36 7.34 -2 7 C-2 5.35 -2 3.7 -2 2 C-1.34 2 -0.68 2 0 2 C0 1.34 0 0.68 0 0 Z " fill="#D2BFB0" transform="translate(43,49)"/>
<path d="M0 0 C0.66 0 1.32 0 2 0 C2.268125 0.969375 2.53625 1.93875 2.8125 2.9375 C3.204375 3.948125 3.59625 4.95875 4 6 C4.99 6.33 5.98 6.66 7 7 C7.33 8.98 7.66 10.96 8 13 C8.66 13 9.32 13 10 13 C11.4606285 15.64738916 12 16.89448334 12 20 C11.34 20 10.68 20 10 20 C9.67 19.34 9.34 18.68 9 18 C8.01 18 7.02 18 6 18 C5.34 18.66 4.68 19.32 4 20 C3.67 19.01 3.34 18.02 3 17 C3.99 16.01 4.98 15.02 6 14 C5.0409375 13.8453125 5.0409375 13.8453125 4.0625 13.6875 C3.381875 13.460625 2.70125 13.23375 2 13 C1.67 12.01 1.34 11.02 1 10 C2.32 9.67 3.64 9.34 5 9 C4.01 8.67 3.02 8.34 2 8 C1.26953125 6.15234375 1.26953125 6.15234375 0.8125 3.9375 C0.65394531 3.20402344 0.49539062 2.47054687 0.33203125 1.71484375 C0.22246094 1.14894531 0.11289063 0.58304688 0 0 Z " fill="#AE8A70" transform="translate(174,53)"/>
<path d="M0 0 C0.33 0.66 0.66 1.32 1 2 C2.32 1.34 3.64 0.68 5 0 C5 3.96 5 7.92 5 12 C4.01 12.495 4.01 12.495 3 13 C3 12.01 3 11.02 3 10 C2.34 10 1.68 10 1 10 C1 10.66 1 11.32 1 12 C0.01 11.67 -0.98 11.34 -2 11 C-2.3721042 9.67696283 -2.70630173 8.34262065 -3 7 C-3.66 6.67 -4.32 6.34 -5 6 C-4.360625 5.38125 -3.72125 4.7625 -3.0625 4.125 C-0.96116416 2.17402388 -0.96116416 2.17402388 0 0 Z " fill="#E7DBD3" transform="translate(168,138)"/>
<path d="M0 0 C2.475 0.99 2.475 0.99 5 2 C4.34 3.32 3.68 4.64 3 6 C1.68 5.67 0.36 5.34 -1 5 C-1.66 6.65 -2.32 8.3 -3 10 C-4.65 10 -6.3 10 -8 10 C-7.67 9.01 -7.34 8.02 -7 7 C-7.66 6.67 -8.32 6.34 -9 6 C-9 5.34 -9 4.68 -9 4 C-8.34 4 -7.68 4 -7 4 C-7 3.34 -7 2.68 -7 2 C-3.97580475 2.58803797 -0.98241547 3.22678118 2 4 C2 3.34 2 2.68 2 2 C1.01 2.33 0.02 2.66 -1 3 C-0.67 2.01 -0.34 1.02 0 0 Z " fill="#D1BBAB" transform="translate(157,161)"/>
<path d="M0 0 C1.125 3.75 1.125 3.75 0 6 C-0.99 6.33 -1.98 6.66 -3 7 C-2.67 8.65 -2.34 10.3 -2 12 C-2.99 12 -3.98 12 -5 12 C-5.33 11.34 -5.66 10.68 -6 10 C-6.66 10.66 -7.32 11.32 -8 12 C-8.33 11.34 -8.66 10.68 -9 10 C-9.99 10.495 -9.99 10.495 -11 11 C-10.67 9.35 -10.34 7.7 -10 6 C-9.34 6.33 -8.68 6.66 -8 7 C-7.566875 6.21625 -7.13375 5.4325 -6.6875 4.625 C-4.88027385 1.81375932 -3.53578164 0 0 0 Z " fill="#D5C3B6" transform="translate(37,77)"/>
<path d="M0 0 C1.32 0.66 2.64 1.32 4 2 C3.67 2.33 3.34 2.66 3 3 C3.99 3.66 4.98 4.32 6 5 C3.09399739 6.25664978 1.20395416 7 -2 7 C-2.33 7.99 -2.66 8.98 -3 10 C-8.53846154 10.36923077 -8.53846154 10.36923077 -10.875 8.5 C-11.24625 8.005 -11.6175 7.51 -12 7 C-9.69 7.33 -7.38 7.66 -5 8 C-5.33 7.01 -5.66 6.02 -6 5 C-5.0625 2.8125 -5.0625 2.8125 -4 1 C-2 3 -2 3 -1 5 C-0.34 4.67 0.32 4.34 1 4 C0.67 2.68 0.34 1.36 0 0 Z " fill="#BA967C" transform="translate(144,168)"/>
<path d="M0 0 C0.33 0.66 0.66 1.32 1 2 C0.67 2.66 0.34 3.32 0 4 C0.515625 3.855625 1.03125 3.71125 1.5625 3.5625 C4.68509571 2.84190099 7.82550692 2.42733561 11 2 C10.814375 2.61875 10.62875 3.2375 10.4375 3.875 C9.76313824 6.04160178 9.76313824 6.04160178 11 8 C9.35 8.33 7.7 8.66 6 9 C5.67 8.34 5.34 7.68 5 7 C3.68 7.33 2.36 7.66 1 8 C1 7.01 1 6.02 1 5 C0.4225 5.37125 -0.155 5.7425 -0.75 6.125 C-3 7 -3 7 -5.25 6.125 C-5.8275 5.75375 -6.405 5.3825 -7 5 C-5.68 5 -4.36 5 -3 5 C-3 4.34 -3 3.68 -3 3 C-2.34 3 -1.68 3 -1 3 C-0.67 2.01 -0.34 1.02 0 0 Z " fill="#D1AD91" transform="translate(92,175)"/>
<path d="M0 0 C0.33 0.99 0.66 1.98 1 3 C2.98 3 4.96 3 7 3 C7 3.33 7 3.66 7 4 C5.02 4 3.04 4 1 4 C1.99 5.485 1.99 5.485 3 7 C6.465 6.505 6.465 6.505 10 6 C10 6.99 10 7.98 10 9 C7.58978936 10.51754003 6.31664378 11.02316906 3.4375 10.8125 C0.75061504 9.91687168 -0.41164878 9.34072811 -2 7 C-2.3125 4.4375 -2.3125 4.4375 -2 2 C-1.34 1.34 -0.68 0.68 0 0 Z " fill="#3F3D3A" transform="translate(362,126)"/>
<path d="M0 0 C2 2 2 2 3 5 C5.01508358 5.73323796 5.01508358 5.73323796 7 6 C6.34 6.66 5.68 7.32 5 8 C5.185625 8.804375 5.37125 9.60875 5.5625 10.4375 C5.706875 11.283125 5.85125 12.12875 6 13 C4.5625 14.8125 4.5625 14.8125 3 16 C4.32 16.66 5.64 17.32 7 18 C5.02 18.99 5.02 18.99 3 20 C0.67409146 16.36576791 0.83734167 13.22911669 1 9 C1.66 9 2.32 9 3 9 C3 8.34 3 7.68 3 7 C2.01 7.33 1.02 7.66 0 8 C0.33 6.35 0.66 4.7 1 3 C0.34 3 -0.32 3 -1 3 C-0.67 2.01 -0.34 1.02 0 0 Z " fill="#AE8C73" transform="translate(26,105)"/>
<path d="M0 0 C2.97 0.495 2.97 0.495 6 1 C5.34 4.96 4.68 8.92 4 13 C2.68 13 1.36 13 0 13 C0 8.71 0 4.42 0 0 Z " fill="#4D4B48" transform="translate(229,123)"/>
<path d="M0 0 C0.99 0 1.98 0 3 0 C2.835 0.928125 2.67 1.85625 2.5 2.8125 C1.92251612 5.95621353 1.92251612 5.95621353 2 9 C1.01 8.34 0.02 7.68 -1 7 C-0.34 8.32 0.32 9.64 1 11 C0.01 10.67 -0.98 10.34 -2 10 C-2 10.99 -2 11.98 -2 13 C-2.66 13 -3.32 13 -4 13 C-6.03684712 8.92630576 -6.0257259 6.41062136 -5 2 C-4.34 2.33 -3.68 2.66 -3 3 C-3 3.66 -3 4.32 -3 5 C-2.34 5 -1.68 5 -1 5 C-0.67 3.35 -0.34 1.7 0 0 Z " fill="#BA9B86" transform="translate(36,123)"/>
<path d="M0 0 C0.99 0 1.98 0 3 0 C3 5.94 3 11.88 3 18 C2.01 18 1.02 18 0 18 C0 12.06 0 6.12 0 0 Z " fill="#32302D" transform="translate(284,118)"/>
<path d="M0 0 C2.86724686 0.57344937 3.8614515 0.8614515 6 3 C3.525 4.485 3.525 4.485 1 6 C3.31 5.34 5.62 4.68 8 4 C9.5625 5.75 9.5625 5.75 11 8 C10.6875 10.25 10.6875 10.25 10 12 C9.34 11.67 8.68 11.34 8 11 C8 10.34 8 9.68 8 9 C5.03 8.01 2.06 7.02 -1 6 C-0.67 4.02 -0.34 2.04 0 0 Z " fill="#C2A692" transform="translate(151,31)"/>
<path d="M0 0 C1.32 0 2.64 0 4 0 C4 4.29 4 8.58 4 13 C2.68 13 1.36 13 0 13 C0 8.71 0 4.42 0 0 Z " fill="#545250" transform="translate(290,123)"/>
<path d="M0 0 C0.99 0 1.98 0 3 0 C3.33 0.99 3.66 1.98 4 3 C5.32 3 6.64 3 8 3 C8.33 2.34 8.66 1.68 9 1 C9.33 2.32 9.66 3.64 10 5 C9.34 5 8.68 5 8 5 C7.01 6.485 7.01 6.485 6 8 C2.875 8.6875 2.875 8.6875 0 9 C-0.33 8.01 -0.66 7.02 -1 6 C-0.01 6 0.98 6 2 6 C2 5.34 2 4.68 2 4 C0.68 4 -0.64 4 -2 4 C-1.34 2.68 -0.68 1.36 0 0 Z " fill="#E8DED7" transform="translate(28,86)"/>
<path d="M0 0 C1.423125 0.2784375 1.423125 0.2784375 2.875 0.5625 C5.89868793 1.28686632 5.89868793 1.28686632 8 0 C9.54613014 0.08651631 11.08909387 0.24002636 12.625 0.4375 C13.85089844 0.59025391 13.85089844 0.59025391 15.1015625 0.74609375 C16.04128906 0.87177734 16.04128906 0.87177734 17 1 C16.67 2.65 16.34 4.3 16 6 C15.01 5.34 14.02 4.68 13 4 C9.76138705 4 7.90259811 4.6250851 5 6 C4.67 6.66 4.34 7.32 4 8 C3.34 7.67 2.68 7.34 2 7 C2.66 5.68 3.32 4.36 4 3 C2.68 2.34 1.36 1.68 0 1 C0 0.67 0 0.34 0 0 Z " fill="#CDA689" transform="translate(107,18)"/>
<path d="M0 0 C2.97 0.495 2.97 0.495 6 1 C5.5359375 1.7425 5.5359375 1.7425 5.0625 2.5 C3.58355618 5.97986781 3.37597149 9.24028509 3 13 C2.01 13 1.02 13 0 13 C0 8.71 0 4.42 0 0 Z " fill="#393734" transform="translate(446,123)"/>
<path d="M0 0 C1.67542976 0.28604898 3.34385343 0.61781233 5 1 C5.33 2.65 5.66 4.3 6 6 C4.35 6.66 2.7 7.32 1 8 C-1 6 -1 6 -1.1875 3.4375 C-1 1 -1 1 0 0 Z " fill="#EBEBEA" transform="translate(403,126)"/>
<path d="M0 0 C1.98 0 3.96 0 6 0 C6 0.99 6 1.98 6 3 C4.35 2.67 2.7 2.34 1 2 C1.33 2.99 1.66 3.98 2 5 C1.0625 7.1875 1.0625 7.1875 0 9 C-0.66 9 -1.32 9 -2 9 C-1.67 7.68 -1.34 6.36 -1 5 C-4.60992379 5.65585189 -4.60992379 5.65585189 -8 7 C-7.34 5.35 -6.68 3.7 -6 2 C-4.02 2 -2.04 2 0 2 C0 1.34 0 0.68 0 0 Z " fill="#C9AB95" transform="translate(79,23)"/>
<path d="M0 0 C0.99 0.33 1.98 0.66 3 1 C3 3.66666667 3 6.33333333 3 9 C3.33 9.99 3.66 10.98 4 12 C1.69 11.67 -0.62 11.34 -3 11 C-3.33 10.01 -3.66 9.02 -4 8 C-3.34 7.67 -2.68 7.34 -2 7 C-2.66 6.34 -3.32 5.68 -4 5 C-3.01 4.34 -2.02 3.68 -1 3 C-0.67 2.01 -0.34 1.02 0 0 Z " fill="#C4AA96" transform="translate(50,41)"/>
<path d="M0 0 C0.99 0.33 1.98 0.66 3 1 C3 1.99 3 2.98 3 4 C3.66 4.33 4.32 4.66 5 5 C2.36 6.98 -0.28 8.96 -3 11 C-3.66 9.68 -4.32 8.36 -5 7 C-4.01 6.67 -3.02 6.34 -2 6 C-2 4.68 -2 3.36 -2 2 C-1.34 1.34 -0.68 0.68 0 0 Z " fill="#E4D0C1" transform="translate(116,173)"/>
<path d="M0 0 C1.67542976 0.28604898 3.34385343 0.61781233 5 1 C5.38218767 2.65614657 5.71395102 4.32457024 6 6 C5 7 5 7 2.5 7.125 C0 7 0 7 -1 6 C-1.125 3.5 -1.125 3.5 -1 1 C-0.67 0.67 -0.34 0.34 0 0 Z " fill="#EFEFEF" transform="translate(435,126)"/>
<path d="M0 0 C1.67542976 0.28604898 3.34385343 0.61781233 5 1 C5.38218767 2.65614657 5.71395102 4.32457024 6 6 C5 7 5 7 2.5 7.125 C0 7 0 7 -1 6 C-1.125 3.5 -1.125 3.5 -1 1 C-0.67 0.67 -0.34 0.34 0 0 Z " fill="#F0F0F0" transform="translate(334,126)"/>
<path d="M0 0 C1.67542976 0.28604898 3.34385343 0.61781233 5 1 C5.38218767 2.65614657 5.71395102 4.32457024 6 6 C5 7 5 7 2.5 7.125 C0 7 0 7 -1 6 C-1.125 3.5 -1.125 3.5 -1 1 C-0.67 0.67 -0.34 0.34 0 0 Z " fill="#F1F1F1" transform="translate(218,126)"/>
<path d="M0 0 C0 0.66 0 1.32 0 2 C-0.66 2 -1.32 2 -2 2 C-2.11320856 7.08303686 -2.11320856 7.08303686 -1 12 C-3.16874252 11.49396008 -4.99967627 11.00016187 -7 10 C-6.649375 9.2575 -6.29875 8.515 -5.9375 7.75 C-4.95490707 4.8677274 -4.9673198 3.78823655 -6 1 C-3 0 -3 0 0 0 Z " fill="#DDCDC2" transform="translate(36,111)"/>
<path d="M0 0 C0.99 0.33 1.98 0.66 3 1 C2.125 6.75 2.125 6.75 1 9 C-0.97888961 9.72693904 -2.97954558 10.39816251 -5 11 C-5 10.01 -5 9.02 -5 8 C-4.34 8 -3.68 8 -3 8 C-2.67 6.02 -2.34 4.04 -2 2 C-1.34 2 -0.68 2 0 2 C0 1.34 0 0.68 0 0 Z " fill="#F3EFEB" transform="translate(34,66)"/>
<path d="M0 0 C0.99 0 1.98 0 3 0 C3 0.66 3 1.32 3 2 C4.98 1.67 6.96 1.34 9 1 C8.34 2.98 7.68 4.96 7 7 C5.35 7 3.7 7 2 7 C2 6.34 2 5.68 2 5 C0.68 4.67 -0.64 4.34 -2 4 C-2 3.34 -2 2.68 -2 2 C-1.01 2 -0.02 2 1 2 C0.67 1.34 0.34 0.68 0 0 Z " fill="#DBCBC0" transform="translate(175,133)"/>
<path d="M0 0 C2.64 0 5.28 0 8 0 C8.33 0.99 8.66 1.98 9 3 C6.36 3.33 3.72 3.66 1 4 C1 4.66 1 5.32 1 6 C-0.32 6 -1.64 6 -3 6 C-3.66 4.35 -4.32 2.7 -5 1 C-3.68 1.33 -2.36 1.66 -1 2 C-0.67 1.34 -0.34 0.68 0 0 Z " fill="#C7A68E" transform="translate(90,20)"/>
<path d="M0 0 C4.61702128 2.23404255 4.61702128 2.23404255 6 5 C4.824375 5.12375 4.824375 5.12375 3.625 5.25 C0.85250896 5.72806339 0.85250896 5.72806339 -0.3125 8.0625 C-0.539375 8.701875 -0.76625 9.34125 -1 10 C-1 9.34 -1 8.68 -1 8 C-1.99 8.33 -2.98 8.66 -4 9 C-4 8.34 -4 7.68 -4 7 C-3.01 6.67 -2.02 6.34 -1 6 C-1.99 5.34 -2.98 4.68 -4 4 C-2.68 3.34 -1.36 2.68 0 2 C0 1.34 0 0.68 0 0 Z " fill="#C7AE9C" transform="translate(164,153)"/>
<path d="M0 0 C1.32 0 2.64 0 4 0 C4 0.66 4 1.32 4 2 C6.31 2.33 8.62 2.66 11 3 C11 4.32 11 5.64 11 7 C7.37 7 3.74 7 0 7 C0.99 6.01 1.98 5.02 3 4 C2.01 3.67 1.02 3.34 0 3 C0 2.01 0 1.02 0 0 Z " fill="#AE8567" transform="translate(132,22)"/>
<path d="M0 0 C0.99 0 1.98 0 3 0 C3 3.96 3 7.92 3 12 C2.01 12 1.02 12 0 12 C0 8.04 0 4.08 0 0 Z " fill="#2E2C29" transform="translate(425,124)"/>
<path d="M0 0 C0.99 0.33 1.98 0.66 3 1 C3 1.66 3 2.32 3 3 C2.01 3 1.02 3 0 3 C0 4.65 0 6.3 0 8 C-0.33 7.34 -0.66 6.68 -1 6 C-3.31 6 -5.62 6 -8 6 C-7.6875 4.0625 -7.6875 4.0625 -7 2 C-3.86650268 0.95550089 -3.01031744 1.06576355 0 2 C0 1.34 0 0.68 0 0 Z " fill="#BA9B84" transform="translate(61,35)"/>
<path d="M0 0 C4.875 0.875 4.875 0.875 6 2 C6.33 1.34 6.66 0.68 7 0 C7.99 0 8.98 0 10 0 C9.67 1.65 9.34 3.3 9 5 C6 6 6 6 3 5 C1.3125 2.4375 1.3125 2.4375 0 0 Z " fill="#E8DCD3" transform="translate(61,34)"/>
<path d="M0 0 C1.32 0.33 2.64 0.66 4 1 C3.01 1.495 3.01 1.495 2 2 C2 2.66 2 3.32 2 4 C3.32 4.33 4.64 4.66 6 5 C5.34 5 4.68 5 4 5 C3.67 5.66 3.34 6.32 3 7 C2.67 6.67 2.34 6.34 2 6 C1.67 6.99 1.34 7.98 1 9 C0.34 9 -0.32 9 -1 9 C-1.80967438 6.08517222 -2.21845993 4.53886783 -1.0625 1.6875 C-0.711875 1.130625 -0.36125 0.57375 0 0 Z " fill="#D7C5B9" transform="translate(185,96)"/>
<path d="M0 0 C1.98 0 3.96 0 6 0 C7.27351308 2.54702616 6.80191925 3.4282945 6.0625 6.125 C5.86785156 6.84945312 5.67320313 7.57390625 5.47265625 8.3203125 C5.23869141 9.15175781 5.23869141 9.15175781 5 10 C4.67 10 4.34 10 4 10 C4 8.35 4 6.7 4 5 C3.34 5 2.68 5 2 5 C2 4.34 2 3.68 2 3 C1.01 3.33 0.02 3.66 -1 4 C-0.67 2.68 -0.34 1.36 0 0 Z " fill="#C0A38F" transform="translate(37,57)"/>
<path d="M0 0 C0.66 0 1.32 0 2 0 C2 1.32 2 2.64 2 4 C1.01 4 0.02 4 -1 4 C-1 4.66 -1 5.32 -1 6 C-0.01 6 0.98 6 2 6 C1.67 6.66 1.34 7.32 1 8 C-1.0625 8.625 -1.0625 8.625 -3 9 C-3.66 7.02 -4.32 5.04 -5 3 C-4.360625 2.690625 -3.72125 2.38125 -3.0625 2.0625 C-1.06389179 1.1654837 -1.06389179 1.1654837 0 0 Z " fill="#F2EDE9" transform="translate(183,77)"/>
<path d="M0 0 C2 1 2 1 2 1 Z M-2 1 C0.125 1.375 0.125 1.375 2 2 C2 3.32 2 4.64 2 6 C-0.31 6.66 -2.62 7.32 -5 8 C-4.25 3.25 -4.25 3.25 -2 1 Z " fill="#F2E4D9" transform="translate(115,21)"/>
<path d="M0 0 C2.475 0.99 2.475 0.99 5 2 C4.34 3.32 3.68 4.64 3 6 C1.68 5.67 0.36 5.34 -1 5 C-1.33 5.99 -1.66 6.98 -2 8 C-4 5 -4 5 -4 3 C-4.66 2.67 -5.32 2.34 -6 2 C-2 3 -2 3 2 4 C2 3.34 2 2.68 2 2 C1.01 2.33 0.02 2.66 -1 3 C-0.67 2.01 -0.34 1.02 0 0 Z " fill="#B9977E" transform="translate(157,161)"/>
<path d="M0 0 C4.95 0.99 4.95 0.99 10 2 C7.75 4.0625 7.75 4.0625 5 6 C2.6875 5.75 2.6875 5.75 1 5 C0.67 3.35 0.34 1.7 0 0 Z " fill="#E7D9CD" transform="translate(80,25)"/>
<path d="M0 0 C0.33 0 0.66 0 1 0 C0.62870515 6.43577743 0.62870515 6.43577743 -2.4375 9.1875 C-3.7059375 10.0846875 -3.7059375 10.0846875 -5 11 C-6.31165257 13.11660427 -6.31165257 13.11660427 -7 15 C-8.125 11.25 -8.125 11.25 -7 9 C-6.34 8.34 -5.68 7.68 -5 7 C-4.01 7 -3.02 7 -2 7 C-1.34 4.69 -0.68 2.38 0 0 Z " fill="#AD8A71" transform="translate(36,70)"/>
<path d="M0 0 C3.85645121 -0.22036864 6.49223216 0.39644899 10 2 C10 2.33 10 2.66 10 3 C9.071875 2.979375 8.14375 2.95875 7.1875 2.9375 C3.97713989 2.84230396 3.97713989 2.84230396 1 4 C1 4.99 1 5.98 1 7 C0.01 6.67 -0.98 6.34 -2 6 C-1.34 4.02 -0.68 2.04 0 0 Z " fill="#EEE4DC" transform="translate(130,24)"/>
<path d="M0 0 C0.99 0.33 1.98 0.66 3 1 C3 1.66 3 2.32 3 3 C4.65 3 6.3 3 8 3 C7.360625 3.12375 6.72125 3.2475 6.0625 3.375 C5.381875 3.58125 4.70125 3.7875 4 4 C3.67 4.66 3.34 5.32 3 6 C2.01 5.67 1.02 5.34 0 5 C-0.33 6.32 -0.66 7.64 -1 9 C-1.66 8.34 -2.32 7.68 -3 7 C-2.34 7 -1.68 7 -1 7 C-0.67 4.69 -0.34 2.38 0 0 Z " fill="#EEE7E2" transform="translate(174,137)"/>
<path d="M0 0 C2.875 0.25 2.875 0.25 6 1 C7.375 3.0625 7.375 3.0625 8 5 C5.36 5 2.72 5 0 5 C0 3.35 0 1.7 0 0 Z " fill="#C8AD9A" transform="translate(127,175)"/>
<path d="M0 0 C1.66666667 0 3.33333333 0 5 0 C4.814375 0.639375 4.62875 1.27875 4.4375 1.9375 C4.293125 2.618125 4.14875 3.29875 4 4 C4.33 4.33 4.66 4.66 5 5 C5.04080783 6.99958364 5.04254356 9.00045254 5 11 C4.01 10.67 3.02 10.34 2 10 C1.855625 8.906875 1.71125 7.81375 1.5625 6.6875 C1.11711896 3.06877013 1.11711896 3.06877013 0 0 Z " fill="#9E7558" transform="translate(186,101)"/>
<path d="M0 0 C2.31 0.66 4.62 1.32 7 2 C6.67 2.66 6.34 3.32 6 4 C6 4.66 6 5.32 6 6 C5.01 6.33 4.02 6.66 3 7 C2.67 5.68 2.34 4.36 2 3 C1.67 3.66 1.34 4.32 1 5 C0.34 5 -0.32 5 -1 5 C-0.67 3.35 -0.34 1.7 0 0 Z " fill="#D4B69F" transform="translate(125,21)"/>
<path d="M0 0 C1.32 0.66 2.64 1.32 4 2 C3.67 2.33 3.34 2.66 3 3 C3.99 3.66 4.98 4.32 6 5 C2.21812119 6.83691257 0.05431692 7.15837626 -4 6 C-4 5.67 -4 5.34 -4 5 C-2.35 4.67 -0.7 4.34 1 4 C0.67 2.68 0.34 1.36 0 0 Z " fill="#AD8466" transform="translate(144,168)"/>
<path d="M0 0 C1.65 0 3.3 0 5 0 C5 0.66 5 1.32 5 2 C4.34 2 3.68 2 3 2 C3 3.65 3 5.3 3 7 C2.01 7 1.02 7 0 7 C0 4.66666667 0 2.33333333 0 0 Z " fill="#F0E9E4" transform="translate(179,121)"/>
<path d="M0 0 C0.66 0.33 1.32 0.66 2 1 C2 1.99 2 2.98 2 4 C1.34 4 0.68 4 0 4 C0.33 5.65 0.66 7.3 1 9 C-0.32 9 -1.64 9 -3 9 C-2.79375 8.236875 -2.5875 7.47375 -2.375 6.6875 C-1.66608797 3.78114056 -1.66608797 3.78114056 -4 1 C-2.68 1.33 -1.36 1.66 0 2 C0 1.34 0 0.68 0 0 Z " fill="#A0785B" transform="translate(188,114)"/>
<path d="M0 0 C1.65 0.33 3.3 0.66 5 1 C5.33 2.65 5.66 4.3 6 6 C5.34 5.67 4.68 5.34 4 5 C4 4.34 4 3.68 4 3 C2.02 3.33 0.04 3.66 -2 4 C-1.34 2.68 -0.68 1.36 0 0 Z " fill="#F0E9E5" transform="translate(181,116)"/>
<path d="M0 0 C0.33 0.99 0.66 1.98 1 3 C1.99 3.33 2.98 3.66 4 4 C3.34 5.32 2.68 6.64 2 8 C1.34 7.34 0.68 6.68 0 6 C-2.58354218 5.83312552 -2.58354218 5.83312552 -5 6 C-5 5.34 -5 4.68 -5 4 C-3.35 3.34 -1.7 2.68 0 2 C0 1.34 0 0.68 0 0 Z " fill="#C8AF9D" transform="translate(65,29)"/>
<path d="M0 0 C1.32 0 2.64 0 4 0 C4.66 2.31 5.32 4.62 6 7 C4.125 6.875 4.125 6.875 2 6 C0.75 2.9375 0.75 2.9375 0 0 Z " fill="#E5D7CD" transform="translate(122,174)"/>
<path d="M0 0 C1.32 0 2.64 0 4 0 C4 0.66 4 1.32 4 2 C4.99 2.33 5.98 2.66 7 3 C7.33 4.65 7.66 6.3 8 8 C7.34 8 6.68 8 6 8 C6 7.34 6 6.68 6 6 C5.34 6 4.68 6 4 6 C3.67 5.01 3.34 4.02 3 3 C1.50014391 1.33289654 1.50014391 1.33289654 0 0 Z " fill="#9E7355" transform="translate(38,145)"/>
<path d="M0 0 C1.32 0 2.64 0 4 0 C3.67 0.99 3.34 1.98 3 3 C3.38932856 5.14255793 3.38932856 5.14255793 4 7 C2.68 7 1.36 7 0 7 C0 6.01 0 5.02 0 4 C-0.33 3.34 -0.66 2.68 -1 2 C-0.67 1.34 -0.34 0.68 0 0 Z " fill="#A68064" transform="translate(187,93)"/>
<path d="M0 0 C0.33 0.99 0.66 1.98 1 3 C1.66 3.33 2.32 3.66 3 4 C3 4.66 3 5.32 3 6 C1 8 1 8 -1 9 C-1.66 7.02 -2.32 5.04 -3 3 C-2.34 3 -1.68 3 -1 3 C-0.67 2.01 -0.34 1.02 0 0 Z " fill="#D0BCAD" transform="translate(182,71)"/>
<path d="M0 0 C1.32 0 2.64 0 4 0 C4 0.66 4 1.32 4 2 C4.66 2 5.32 2 6 2 C5.67 3.32 5.34 4.64 5 6 C3.68 5.67 2.36 5.34 1 5 C0.67 3.35 0.34 1.7 0 0 Z " fill="#B18F76" transform="translate(35,138)"/>
<path d="M0 0 C0.33 0.99 0.66 1.98 1 3 C2.32 3 3.64 3 5 3 C5.33 2.34 5.66 1.68 6 1 C6.33 2.32 6.66 3.64 7 5 C5.68 4.67 4.36 4.34 3 4 C3 4.66 3 5.32 3 6 C1.68 6 0.36 6 -1 6 C-1 3 -1 3 0 0 Z " fill="#CBB3A3" transform="translate(182,104)"/>
<path d="M0 0 C0.99 0 1.98 0 3 0 C2.979375 0.928125 2.95875 1.85625 2.9375 2.8125 C2.84230396 6.02286011 2.84230396 6.02286011 4 9 C2.68 9 1.36 9 0 9 C0 6.03 0 3.06 0 0 Z " fill="#A78167" transform="translate(187,82)"/>
<path d="M0 0 C0.66 0 1.32 0 2 0 C1.67 1.98 1.34 3.96 1 6 C1.99 6.33 2.98 6.66 4 7 C4 7.99 4 8.98 4 10 C3.34 10 2.68 10 2 10 C1.67 9.34 1.34 8.68 1 8 C0.34 8 -0.32 8 -1 8 C-0.67 5.36 -0.34 2.72 0 0 Z " fill="#EBDBCF" transform="translate(123,21)"/>
<path d="M0 0 C2 3 2 3 2 7 C0 6 0 6 -2 3 C-3.32 3.33 -4.64 3.66 -6 4 C-5.67 3.01 -5.34 2.02 -5 1 C-2 0 -2 0 0 0 Z " fill="#D0AA8D" transform="translate(106,18)"/>
<path d="M0 0 C1.65 0 3.3 0 5 0 C5.33 0.99 5.66 1.98 6 3 C5.34 3.66 4.68 4.32 4 5 C3.67 4.67 3.34 4.34 3 4 C2.34 4.66 1.68 5.32 1 6 C0.4465236 3.92446352 0 2.15634036 0 0 Z " fill="#DECEC2" transform="translate(169,53)"/>
<path d="M0 0 C0.33 0.66 0.66 1.32 1 2 C2.32 1.34 3.64 0.68 5 0 C5 1.98 5 3.96 5 6 C3.68 6 2.36 6 1 6 C0.34 4.35 -0.32 2.7 -1 1 C-0.67 0.67 -0.34 0.34 0 0 Z " fill="#D0BBAB" transform="translate(168,138)"/>
<path d="M0 0 C1.31571603 0.2547514 2.62760376 0.52934141 3.9375 0.8125 C4.66839844 0.96332031 5.39929688 1.11414063 6.15234375 1.26953125 C6.76207031 1.51058594 7.37179688 1.75164062 8 2 C8.33 2.99 8.66 3.98 9 5 C7.35 5 5.7 5 4 5 C4 4.34 4 3.68 4 3 C2.68 2.67 1.36 2.34 0 2 C0 1.34 0 0.68 0 0 Z " fill="#B28F77" transform="translate(173,135)"/>
<path d="M0 0 C0.66 0.33 1.32 0.66 2 1 C1.67 3.31 1.34 5.62 1 8 C0.01 7.67 -0.98 7.34 -2 7 C-2.33 5.35 -2.66 3.7 -3 2 C-2.34 2 -1.68 2 -1 2 C-0.67 1.34 -0.34 0.68 0 0 Z " fill="#D2BEB0" transform="translate(30,103)"/>
<path d="M0 0 C0.66 0 1.32 0 2 0 C1.814375 0.598125 1.62875 1.19625 1.4375 1.8125 C0.77906313 4.16408762 0.77906313 4.16408762 2 7 C0.35 7.66 -1.3 8.32 -3 9 C-3 8.01 -3 7.02 -3 6 C-2.34 6 -1.68 6 -1 6 C-0.67 4.02 -0.34 2.04 0 0 Z " fill="#BA9C87" transform="translate(32,68)"/>
<path d="M0 0 C0.99 0 1.98 0 3 0 C4.4606285 2.64738916 5 3.89448334 5 7 C3 7 3 7 1.375 5.75 C0 4 0 4 0 0 Z " fill="#C3A997" transform="translate(181,66)"/>
<path d="M0 0 C0.33 0 0.66 0 1 0 C1 2.64 1 5.28 1 8 C0.34 8 -0.32 8 -1 8 C-1 7.01 -1 6.02 -1 5 C-2.32 5 -3.64 5 -5 5 C-4.67 4.01 -4.34 3.02 -4 2 C-2.02 2.495 -2.02 2.495 0 3 C0 2.01 0 1.02 0 0 Z " fill="#B6967F" transform="translate(38,62)"/>
<path d="M0 0 C0.99 0.66 1.98 1.32 3 2 C3.66 2.33 4.32 2.66 5 3 C1.375 6 1.375 6 -2 6 C-1.34 4.02 -0.68 2.04 0 0 Z " fill="#F6F2F0" transform="translate(45,49)"/>
<path d="M0 0 C1.98 0.66 3.96 1.32 6 2 C6 5 6 5 4 8 C3.34 7.67 2.68 7.34 2 7 C2.66 5.68 3.32 4.36 4 3 C2.68 2.34 1.36 1.68 0 1 C0 0.67 0 0.34 0 0 Z " fill="#DFBDA3" transform="translate(107,18)"/>
<path d="M0 0 C-0.66 1.98 -1.32 3.96 -2 6 C-3.32 5.67 -4.64 5.34 -6 5 C-6 4.34 -6 3.68 -6 3 C-2.53846154 0 -2.53846154 0 0 0 Z " fill="#F3E9E1" transform="translate(113,177)"/>
<path d="M0 0 C3.875 2.625 3.875 2.625 5 6 C2.83125748 5.49396008 1.00032373 5.00016187 -1 4 C-0.67 2.68 -0.34 1.36 0 0 Z " fill="#E1D3CA" transform="translate(30,117)"/>
<path d="M0 0 C2.97 0.495 2.97 0.495 6 1 C6 1.66 6 2.32 6 3 C3.69 3 1.38 3 -1 3 C-0.67 2.01 -0.34 1.02 0 0 Z " fill="#CDCDCC" transform="translate(248,126)"/>
<path d="M0 0 C-0.99 0.66 -1.98 1.32 -3 2 C-3.515625 2.53625 -4.03125 3.0725 -4.5625 3.625 C-6 5 -6 5 -8 5 C-8 3.68 -8 2.36 -8 1 C-5.29120665 -0.35439668 -2.99066732 -0.06501451 0 0 Z " fill="#ECE0D8" transform="translate(140,28)"/>
<path d="M0 0 C0.66 0 1.32 0 2 0 C2.33 1.65 2.66 3.3 3 5 C1.35 4.67 -0.3 4.34 -2 4 C-1.34 2.68 -0.68 1.36 0 0 Z " fill="#AD8A70" transform="translate(54,159)"/>
<path d="M0 0 C2.97 0 5.94 0 9 0 C7.25 1.5625 7.25 1.5625 5 3 C2.8125 2.8125 2.8125 2.8125 1 2 C0.67 1.34 0.34 0.68 0 0 Z " fill="#EEEEEE" transform="translate(363,131)"/>
<path d="M0 0 C2.97 0 5.94 0 9 0 C7.25 1.5625 7.25 1.5625 5 3 C2.8125 2.8125 2.8125 2.8125 1 2 C0.67 1.34 0.34 0.68 0 0 Z " fill="#EDEDED" transform="translate(247,131)"/>
<path d="M0 0 C2.4375 0.375 2.4375 0.375 5 1 C5.33 1.66 5.66 2.32 6 3 C3.69 3 1.38 3 -1 3 C-0.67 2.01 -0.34 1.02 0 0 Z " fill="#D4D4D3" transform="translate(364,126)"/>
<path d="M0 0 C0.66 0 1.32 0 2 0 C2 0.66 2 1.32 2 2 C3.32 2.66 4.64 3.32 6 4 C4.02 4.99 4.02 4.99 2 6 C0 2.25 0 2.25 0 0 Z " fill="#A9856B" transform="translate(27,119)"/>
</svg>
